<?xml version="1.0" encoding="UTF-8"?>
<mxfile host="app.diagrams.net" modified="2024-01-25T11:23:45.557Z" agent="Mozilla/5.0 (Windows NT 10.0; Win64; x64) AppleWebKit/537.36 (KHTML, like Gecko) Chrome/120.0.0.0 Safari/537.36" etag="53hXrDLhup23irhqq1gF" version="22.1.21" type="onedrive">
  <diagram name="Seite-1" id="FLmV5E4ToCS-wS46Fgu7">
    <mxGraphModel dx="3999" dy="2140" grid="1" gridSize="10" guides="1" tooltips="1" connect="1" arrows="1" fold="1" page="1" pageScale="1" pageWidth="827" pageHeight="1169" math="0" shadow="0">
      <root>
        <mxCell id="0" />
        <mxCell id="1" parent="0" />
        <mxCell id="dEHR0pHEGPO1OWzX2fx9-8" value="Umfeldwahrnehmung" style="shape=umlLifeline;perimeter=lifelinePerimeter;whiteSpace=wrap;html=1;container=1;dropTarget=0;collapsible=0;recursiveResize=0;outlineConnect=0;portConstraint=eastwest;newEdgeStyle={&quot;edgeStyle&quot;:&quot;elbowEdgeStyle&quot;,&quot;elbow&quot;:&quot;vertical&quot;,&quot;curved&quot;:0,&quot;rounded&quot;:0};" parent="1" vertex="1">
          <mxGeometry x="-800" y="90" width="120" height="610" as="geometry" />
        </mxCell>
        <mxCell id="dEHR0pHEGPO1OWzX2fx9-9" value="Sensorfusion" style="shape=umlLifeline;perimeter=lifelinePerimeter;whiteSpace=wrap;html=1;container=1;dropTarget=0;collapsible=0;recursiveResize=0;outlineConnect=0;portConstraint=eastwest;newEdgeStyle={&quot;edgeStyle&quot;:&quot;elbowEdgeStyle&quot;,&quot;elbow&quot;:&quot;vertical&quot;,&quot;curved&quot;:0,&quot;rounded&quot;:0};" parent="1" vertex="1">
          <mxGeometry x="-550" y="90" width="110" height="610" as="geometry" />
        </mxCell>
        <mxCell id="dEHR0pHEGPO1OWzX2fx9-16" value="" style="html=1;points=[[0,0,0,0,5],[0,1,0,0,-5],[1,0,0,0,5],[1,1,0,0,-5]];perimeter=orthogonalPerimeter;outlineConnect=0;targetShapes=umlLifeline;portConstraint=eastwest;newEdgeStyle={&quot;curved&quot;:0,&quot;rounded&quot;:0};" parent="dEHR0pHEGPO1OWzX2fx9-9" vertex="1">
          <mxGeometry x="50" y="90" width="10" height="60" as="geometry" />
        </mxCell>
        <mxCell id="dEHR0pHEGPO1OWzX2fx9-10" value="Objekterkennung" style="shape=umlLifeline;perimeter=lifelinePerimeter;whiteSpace=wrap;html=1;container=1;dropTarget=0;collapsible=0;recursiveResize=0;outlineConnect=0;portConstraint=eastwest;newEdgeStyle={&quot;edgeStyle&quot;:&quot;elbowEdgeStyle&quot;,&quot;elbow&quot;:&quot;vertical&quot;,&quot;curved&quot;:0,&quot;rounded&quot;:0};" parent="1" vertex="1">
          <mxGeometry x="-340" y="90" width="160" height="610" as="geometry" />
        </mxCell>
        <mxCell id="lZylIwkXfYwOaSNN_aWm-3" value="" style="html=1;points=[[0,0,0,0,5],[0,1,0,0,-5],[1,0,0,0,5],[1,1,0,0,-5]];perimeter=orthogonalPerimeter;outlineConnect=0;targetShapes=umlLifeline;portConstraint=eastwest;newEdgeStyle={&quot;curved&quot;:0,&quot;rounded&quot;:0};" parent="dEHR0pHEGPO1OWzX2fx9-10" vertex="1">
          <mxGeometry x="75" y="90" width="10" height="60" as="geometry" />
        </mxCell>
        <mxCell id="dEHR0pHEGPO1OWzX2fx9-11" value="Entscheidungsalgorithmus" style="shape=umlLifeline;perimeter=lifelinePerimeter;whiteSpace=wrap;html=1;container=1;dropTarget=0;collapsible=0;recursiveResize=0;outlineConnect=0;portConstraint=eastwest;newEdgeStyle={&quot;edgeStyle&quot;:&quot;elbowEdgeStyle&quot;,&quot;elbow&quot;:&quot;vertical&quot;,&quot;curved&quot;:0,&quot;rounded&quot;:0};" parent="1" vertex="1">
          <mxGeometry x="-50" y="90" width="150" height="610" as="geometry" />
        </mxCell>
        <mxCell id="lZylIwkXfYwOaSNN_aWm-4" value="" style="html=1;points=[[0,0,0,0,5],[0,1,0,0,-5],[1,0,0,0,5],[1,1,0,0,-5]];perimeter=orthogonalPerimeter;outlineConnect=0;targetShapes=umlLifeline;portConstraint=eastwest;newEdgeStyle={&quot;curved&quot;:0,&quot;rounded&quot;:0};" parent="dEHR0pHEGPO1OWzX2fx9-11" vertex="1">
          <mxGeometry x="70" y="150" width="10" height="60" as="geometry" />
        </mxCell>
        <mxCell id="dEHR0pHEGPO1OWzX2fx9-12" value="Bremsen" style="shape=umlLifeline;perimeter=lifelinePerimeter;whiteSpace=wrap;html=1;container=1;dropTarget=0;collapsible=0;recursiveResize=0;outlineConnect=0;portConstraint=eastwest;newEdgeStyle={&quot;edgeStyle&quot;:&quot;elbowEdgeStyle&quot;,&quot;elbow&quot;:&quot;vertical&quot;,&quot;curved&quot;:0,&quot;rounded&quot;:0};" parent="1" vertex="1">
          <mxGeometry x="460" y="90" width="100" height="610" as="geometry" />
        </mxCell>
        <mxCell id="lZylIwkXfYwOaSNN_aWm-6" value="" style="html=1;points=[[0,0,0,0,5],[0,1,0,0,-5],[1,0,0,0,5],[1,1,0,0,-5]];perimeter=orthogonalPerimeter;outlineConnect=0;targetShapes=umlLifeline;portConstraint=eastwest;newEdgeStyle={&quot;curved&quot;:0,&quot;rounded&quot;:0};" parent="dEHR0pHEGPO1OWzX2fx9-12" vertex="1">
          <mxGeometry x="45" y="270" width="10" height="60" as="geometry" />
        </mxCell>
        <mxCell id="dEHR0pHEGPO1OWzX2fx9-13" value="Fahrzeugsteuerung" style="shape=umlLifeline;perimeter=lifelinePerimeter;whiteSpace=wrap;html=1;container=1;dropTarget=0;collapsible=0;recursiveResize=0;outlineConnect=0;portConstraint=eastwest;newEdgeStyle={&quot;edgeStyle&quot;:&quot;elbowEdgeStyle&quot;,&quot;elbow&quot;:&quot;vertical&quot;,&quot;curved&quot;:0,&quot;rounded&quot;:0};" parent="1" vertex="1">
          <mxGeometry x="230" y="90" width="110" height="620" as="geometry" />
        </mxCell>
        <mxCell id="lZylIwkXfYwOaSNN_aWm-5" value="" style="html=1;points=[[0,0,0,0,5],[0,1,0,0,-5],[1,0,0,0,5],[1,1,0,0,-5]];perimeter=orthogonalPerimeter;outlineConnect=0;targetShapes=umlLifeline;portConstraint=eastwest;newEdgeStyle={&quot;curved&quot;:0,&quot;rounded&quot;:0};" parent="dEHR0pHEGPO1OWzX2fx9-13" vertex="1">
          <mxGeometry x="50" y="210" width="10" height="60" as="geometry" />
        </mxCell>
        <mxCell id="dEHR0pHEGPO1OWzX2fx9-14" value="Umfeldwahrnehmung besteht aus:&lt;br&gt;Radar&lt;br&gt;Kameras&lt;br&gt;Lidar&lt;br&gt;Ultraschall-/Infrarotsensoren&amp;nbsp;&lt;br&gt;&amp;nbsp;" style="shape=note;size=20;whiteSpace=wrap;html=1;" parent="1" vertex="1">
          <mxGeometry x="-940" y="-260" width="210" height="120" as="geometry" />
        </mxCell>
        <mxCell id="dEHR0pHEGPO1OWzX2fx9-17" value="erfassteSensordatenWeitergeben(30ms)" style="html=1;verticalAlign=bottom;endArrow=block;curved=0;rounded=0;" parent="1" edge="1">
          <mxGeometry width="80" relative="1" as="geometry">
            <mxPoint x="-740" y="180" as="sourcePoint" />
            <mxPoint x="-500" y="180" as="targetPoint" />
          </mxGeometry>
        </mxCell>
        <mxCell id="dEHR0pHEGPO1OWzX2fx9-18" value="zusammengeführteDatenWeitergeben(15ms)" style="html=1;verticalAlign=bottom;endArrow=block;curved=0;rounded=0;" parent="1" edge="1">
          <mxGeometry x="0.0249" y="10" width="80" relative="1" as="geometry">
            <mxPoint x="-499.998181818182" y="180" as="sourcePoint" />
            <mxPoint x="-264.18" y="180" as="targetPoint" />
            <Array as="points">
              <mxPoint x="-323.68" y="180" />
            </Array>
            <mxPoint as="offset" />
          </mxGeometry>
        </mxCell>
        <mxCell id="dEHR0pHEGPO1OWzX2fx9-19" value="Objekte erfasst und eingeordnet(20ms)" style="html=1;verticalAlign=bottom;endArrow=block;curved=0;rounded=0;" parent="1" edge="1">
          <mxGeometry width="80" relative="1" as="geometry">
            <mxPoint x="-259.99818181818154" y="240" as="sourcePoint" />
            <mxPoint x="21.32" y="240" as="targetPoint" />
            <Array as="points">
              <mxPoint x="-148.68" y="240" />
              <mxPoint x="-68.68" y="240" />
            </Array>
          </mxGeometry>
        </mxCell>
        <mxCell id="dEHR0pHEGPO1OWzX2fx9-20" value="Analyse und Entscheidung über Notbremsung (10ms)" style="html=1;verticalAlign=bottom;endArrow=block;curved=0;rounded=0;" parent="1" edge="1">
          <mxGeometry x="0.0417" width="80" relative="1" as="geometry">
            <mxPoint x="24.666666666666515" y="300" as="sourcePoint" />
            <mxPoint x="284.5" y="300" as="targetPoint" />
            <mxPoint as="offset" />
          </mxGeometry>
        </mxCell>
        <mxCell id="dEHR0pHEGPO1OWzX2fx9-21" value="Bremsvorgang überwachen&amp;nbsp;" style="html=1;verticalAlign=bottom;endArrow=block;curved=0;rounded=0;" parent="1" edge="1">
          <mxGeometry x="-0.152" width="80" relative="1" as="geometry">
            <mxPoint x="279.9966666666665" y="360" as="sourcePoint" />
            <mxPoint x="504.83" y="360" as="targetPoint" />
            <mxPoint x="1" as="offset" />
          </mxGeometry>
        </mxCell>
        <mxCell id="dEHR0pHEGPO1OWzX2fx9-25" value="Umfeldwarnehmung: Erkennt Objekte in Fahrzeugumgebung" style="shape=note;whiteSpace=wrap;html=1;backgroundOutline=1;darkOpacity=0.05;" parent="1" vertex="1">
          <mxGeometry x="-940" y="-105" width="310" height="40" as="geometry" />
        </mxCell>
        <mxCell id="_2nVR4XQZd_CRvGsu4Ds-3" value="Neue Sensordaten erfasst(20ms)" style="html=1;verticalAlign=bottom;endArrow=open;dashed=1;endSize=8;curved=0;rounded=0;" parent="1" edge="1">
          <mxGeometry relative="1" as="geometry">
            <mxPoint x="-495.50000000000045" y="239.99999999999997" as="sourcePoint" />
            <mxPoint x="-740" y="239.99999999999997" as="targetPoint" />
          </mxGeometry>
        </mxCell>
        <mxCell id="_2nVR4XQZd_CRvGsu4Ds-4" value="Daten erfolgreich fusioniert(25ms)" style="html=1;verticalAlign=bottom;endArrow=open;dashed=1;endSize=8;curved=0;rounded=0;" parent="1" edge="1">
          <mxGeometry relative="1" as="geometry">
            <mxPoint x="-259.94" y="240" as="sourcePoint" />
            <mxPoint x="-499.9955555555554" y="240" as="targetPoint" />
          </mxGeometry>
        </mxCell>
        <mxCell id="_2nVR4XQZd_CRvGsu4Ds-5" value="Objekte identifiziert:&lt;br&gt;[Liste mit Einordnungen]" style="html=1;verticalAlign=bottom;endArrow=open;dashed=1;endSize=8;curved=0;rounded=0;" parent="1" edge="1">
          <mxGeometry x="0.0158" y="30" relative="1" as="geometry">
            <mxPoint x="20.21" y="300.0000000000002" as="sourcePoint" />
            <mxPoint x="-260.00428571428574" y="300.0000000000002" as="targetPoint" />
            <mxPoint as="offset" />
          </mxGeometry>
        </mxCell>
        <mxCell id="_2nVR4XQZd_CRvGsu4Ds-6" value="Entscheidung getroffen: Einleitung&amp;nbsp;&amp;nbsp;" style="html=1;verticalAlign=bottom;endArrow=open;dashed=1;endSize=8;curved=0;rounded=0;" parent="1" edge="1">
          <mxGeometry relative="1" as="geometry">
            <mxPoint x="284.5" y="360" as="sourcePoint" />
            <mxPoint x="23.68181818181847" y="360" as="targetPoint" />
            <Array as="points">
              <mxPoint x="80" y="360" />
            </Array>
          </mxGeometry>
        </mxCell>
        <mxCell id="_2nVR4XQZd_CRvGsu4Ds-7" value="Bremsen aktiviert, Dynamische Anpassung&amp;nbsp;&lt;br&gt;des Bremsdrucks (N)" style="html=1;verticalAlign=bottom;endArrow=open;dashed=1;endSize=8;curved=0;rounded=0;" parent="1" edge="1">
          <mxGeometry x="-0.0023" y="46" relative="1" as="geometry">
            <mxPoint x="505.82" y="420" as="sourcePoint" />
            <mxPoint x="280.0018181818189" y="420" as="targetPoint" />
            <mxPoint as="offset" />
          </mxGeometry>
        </mxCell>
        <mxCell id="_2nVR4XQZd_CRvGsu4Ds-9" value="sd [interaction] Notbremsung" style="shape=umlFrame;whiteSpace=wrap;html=1;pointerEvents=0;width=190;height=20;" parent="1" vertex="1">
          <mxGeometry x="-890" y="40" width="1670" height="660" as="geometry" />
        </mxCell>
        <mxCell id="_2nVR4XQZd_CRvGsu4Ds-11" value="Objekterkennung: Objekte werden vom&amp;nbsp;&lt;br style=&quot;border-color: var(--border-color);&quot;&gt;&lt;span style=&quot;&quot;&gt;Algorithmus erkannt und&lt;/span&gt;&lt;br style=&quot;border-color: var(--border-color);&quot;&gt;&lt;span style=&quot;&quot;&gt;eingeordnet (dyn./stat. )&lt;/span&gt;" style="shape=note2;boundedLbl=1;whiteSpace=wrap;html=1;size=25;verticalAlign=top;align=center;" parent="1" vertex="1">
          <mxGeometry x="-350" y="-140" width="240" height="90" as="geometry" />
        </mxCell>
        <mxCell id="_2nVR4XQZd_CRvGsu4Ds-12" value="Sensorfusion: Schnittstelle zur Datenintegration" style="shape=note2;boundedLbl=1;whiteSpace=wrap;html=1;size=25;verticalAlign=top;align=center;" parent="1" vertex="1">
          <mxGeometry x="-610" y="-135" width="230" height="70" as="geometry" />
        </mxCell>
        <mxCell id="_2nVR4XQZd_CRvGsu4Ds-13" value="Entscheidungsalgorithmus:&amp;nbsp;Entschiedet darüber ob&amp;nbsp;&lt;br style=&quot;border-color: var(--border-color);&quot;&gt;&lt;span style=&quot;&quot;&gt;eine Notbremsung erforderlich ist&amp;nbsp;&lt;/span&gt;&lt;br style=&quot;border-color: var(--border-color);&quot;&gt;&lt;span style=&quot;&quot;&gt;oder nicht und gibt Entscheidung weiter an&amp;nbsp;&lt;/span&gt;&lt;br style=&quot;border-color: var(--border-color);&quot;&gt;&lt;span style=&quot;&quot;&gt;Fahrzeugsteuerung&lt;/span&gt;" style="shape=note2;boundedLbl=1;whiteSpace=wrap;html=1;size=25;verticalAlign=top;align=center;" parent="1" vertex="1">
          <mxGeometry x="-90" y="-160" width="260" height="120" as="geometry" />
        </mxCell>
        <mxCell id="_2nVR4XQZd_CRvGsu4Ds-14" value="Fahrzeugsteuerung:&amp;nbsp;Übergeordnete Steuerungseinheit&amp;nbsp;&lt;br style=&quot;border-color: var(--border-color);&quot;&gt;&lt;span style=&quot;&quot;&gt;Integriert Entscheidungen über die Bremsen&amp;nbsp;&lt;/span&gt;" style="shape=note2;boundedLbl=1;whiteSpace=wrap;html=1;size=25;verticalAlign=top;align=center;" parent="1" vertex="1">
          <mxGeometry x="200" y="-130" width="260" height="90" as="geometry" />
        </mxCell>
        <mxCell id="_2nVR4XQZd_CRvGsu4Ds-15" value="Bremssteuerung.&amp;nbsp;Steuert Aktuatoren, hier: Bremsen" style="shape=note2;boundedLbl=1;whiteSpace=wrap;html=1;size=25;verticalAlign=top;align=center;" parent="1" vertex="1">
          <mxGeometry x="500" y="-130" width="260" height="90" as="geometry" />
        </mxCell>
        <mxCell id="AjB-kg3j44eDAR36CqqA-2" value="" style="endArrow=none;dashed=1;html=1;dashPattern=1 3;strokeWidth=2;rounded=0;" parent="1" target="dEHR0pHEGPO1OWzX2fx9-25" edge="1">
          <mxGeometry width="50" height="50" relative="1" as="geometry">
            <mxPoint x="-730" y="90" as="sourcePoint" />
            <mxPoint x="-794" y="-57" as="targetPoint" />
          </mxGeometry>
        </mxCell>
        <mxCell id="AjB-kg3j44eDAR36CqqA-3" value="" style="endArrow=none;dashed=1;html=1;dashPattern=1 3;strokeWidth=2;rounded=0;entryX=0.5;entryY=1;entryDx=0;entryDy=0;entryPerimeter=0;" parent="1" target="_2nVR4XQZd_CRvGsu4Ds-12" edge="1">
          <mxGeometry width="50" height="50" relative="1" as="geometry">
            <mxPoint x="-495" y="90" as="sourcePoint" />
            <mxPoint x="-769" y="-55" as="targetPoint" />
          </mxGeometry>
        </mxCell>
        <mxCell id="AjB-kg3j44eDAR36CqqA-4" value="" style="endArrow=none;dashed=1;html=1;dashPattern=1 3;strokeWidth=2;rounded=0;entryX=0.514;entryY=1.122;entryDx=0;entryDy=0;entryPerimeter=0;exitX=0.625;exitY=-0.007;exitDx=0;exitDy=0;exitPerimeter=0;" parent="1" source="dEHR0pHEGPO1OWzX2fx9-10" target="_2nVR4XQZd_CRvGsu4Ds-11" edge="1">
          <mxGeometry width="50" height="50" relative="1" as="geometry">
            <mxPoint x="-250" y="110" as="sourcePoint" />
            <mxPoint x="-485" y="-55" as="targetPoint" />
          </mxGeometry>
        </mxCell>
        <mxCell id="AjB-kg3j44eDAR36CqqA-5" value="" style="endArrow=none;dashed=1;html=1;dashPattern=1 3;strokeWidth=2;rounded=0;entryX=0.5;entryY=1;entryDx=0;entryDy=0;entryPerimeter=0;" parent="1" target="_2nVR4XQZd_CRvGsu4Ds-13" edge="1">
          <mxGeometry width="50" height="50" relative="1" as="geometry">
            <mxPoint x="40" y="90" as="sourcePoint" />
            <mxPoint x="-217" y="-29" as="targetPoint" />
          </mxGeometry>
        </mxCell>
        <mxCell id="AjB-kg3j44eDAR36CqqA-6" value="" style="endArrow=none;dashed=1;html=1;dashPattern=1 3;strokeWidth=2;rounded=0;entryX=0.5;entryY=1;entryDx=0;entryDy=0;entryPerimeter=0;" parent="1" target="_2nVR4XQZd_CRvGsu4Ds-14" edge="1">
          <mxGeometry width="50" height="50" relative="1" as="geometry">
            <mxPoint x="285" y="90" as="sourcePoint" />
            <mxPoint x="50" y="-30" as="targetPoint" />
          </mxGeometry>
        </mxCell>
        <mxCell id="AjB-kg3j44eDAR36CqqA-7" value="" style="endArrow=none;dashed=1;html=1;dashPattern=1 3;strokeWidth=2;rounded=0;entryX=0.287;entryY=0.996;entryDx=0;entryDy=0;entryPerimeter=0;" parent="1" target="_2nVR4XQZd_CRvGsu4Ds-15" edge="1">
          <mxGeometry width="50" height="50" relative="1" as="geometry">
            <mxPoint x="520" y="90" as="sourcePoint" />
            <mxPoint x="340" y="-30" as="targetPoint" />
          </mxGeometry>
        </mxCell>
        <mxCell id="AjB-kg3j44eDAR36CqqA-8" value="" style="endArrow=none;dashed=1;html=1;dashPattern=1 3;strokeWidth=2;rounded=0;entryX=0.714;entryY=1;entryDx=0;entryDy=0;entryPerimeter=0;" parent="1" target="dEHR0pHEGPO1OWzX2fx9-14" edge="1">
          <mxGeometry width="50" height="50" relative="1" as="geometry">
            <mxPoint x="-790" y="-80" as="sourcePoint" />
            <mxPoint x="-769" y="-55" as="targetPoint" />
          </mxGeometry>
        </mxCell>
        <mxCell id="UOmWAaXjtc2uNiUpceIo-1" value="" style="html=1;points=[[0,0,0,0,5],[0,1,0,0,-5],[1,0,0,0,5],[1,1,0,0,-5]];perimeter=orthogonalPerimeter;outlineConnect=0;targetShapes=umlLifeline;portConstraint=eastwest;newEdgeStyle={&quot;curved&quot;:0,&quot;rounded&quot;:0};" parent="1" vertex="1">
          <mxGeometry x="505" y="540" width="10" height="60" as="geometry" />
        </mxCell>
        <mxCell id="dEHR0pHEGPO1OWzX2fx9-24" value="Bremskraft steuern/anpassen bis Fahrzeug zum Stillstand kommt[10.000N - 15.000N]" style="html=1;verticalAlign=bottom;endArrow=block;curved=0;rounded=0;entryX=1;entryY=1;entryDx=0;entryDy=-5;entryPerimeter=0;" parent="1" source="UOmWAaXjtc2uNiUpceIo-1" target="UOmWAaXjtc2uNiUpceIo-1" edge="1">
          <mxGeometry x="0.1901" y="25" width="80" relative="1" as="geometry">
            <mxPoint x="510" y="546" as="sourcePoint" />
            <mxPoint x="509.7592592592596" y="606" as="targetPoint" />
            <Array as="points">
              <mxPoint x="630" y="546" />
              <mxPoint x="630" y="595" />
            </Array>
            <mxPoint as="offset" />
          </mxGeometry>
        </mxCell>
      </root>
    </mxGraphModel>
  </diagram>
</mxfile>
